# xmcd
#
# Track frame offsets:
#	150
#	17763
#	35854
#	56918
#	77050
#	96689
#	118974
#	140400
#	159305
#	178954
#	200072
#
# Disc length: 2901 seconds
#
# Revision: 8
# Processed by: cddbd v1.5.2PL0 Copyright (c) Steve Scherf et al.
# Submitted via: EasyCDDAExtractor 15.3.0.1
#
DISCID=a90b530b
DTITLE=Monica Naranjo - Chicas Malas
DYEAR=2001
DGENRE=Latin
TTITLE0=Chicas Malas
TTITLE1=No Voy A Llorar
TTITLE2=De Que Me Sirve Ya
TTITLE3=No Puedo Seguir
TTITLE4=Yo Vivo En Ti
TTITLE5=Liberame
TTITLE6=Hot Line
TTITLE7=Lagrimas De Escarcha
TTITLE8=Sacrificio
TTITLE9=No Cambies Nunca
TTITLE10=Ain't It Better Like This
EXTD=www.mnenlibertad.tk
EXTT0=
EXTT1=
EXTT2=
EXTT3=
EXTT4=
EXTT5=
EXTT6=
EXTT7=
EXTT8=
EXTT9=
EXTT10=
PLAYORDER=
